<?xml version="1.0" encoding="UTF-8" standalone="no"?>
<!-- Created with Inkscape (http://www.inkscape.org/) -->

<svg
   xmlns:dc="http://purl.org/dc/elements/1.1/"
   xmlns:cc="http://creativecommons.org/ns#"
   xmlns:rdf="http://www.w3.org/1999/02/22-rdf-syntax-ns#"
   xmlns:svg="http://www.w3.org/2000/svg"
   xmlns="http://www.w3.org/2000/svg"
   xmlns:sodipodi="http://sodipodi.sourceforge.net/DTD/sodipodi-0.dtd"
   xmlns:inkscape="http://www.inkscape.org/namespaces/inkscape"
   version="1.1"
   id="svg9706"
   xml:space="preserve"
   width="800"
   height="800"
   viewBox="0 0 800 800"
   sodipodi:docname="Italy-paint-flag-publicdomainvectors.org.svg"
   inkscape:version="0.92.4 (5da689c313, 2019-01-14)"><metadata
     id="metadata9712"><rdf:RDF><cc:Work
         rdf:about=""><dc:format>image/svg+xml</dc:format><dc:type
           rdf:resource="http://purl.org/dc/dcmitype/StillImage" /><dc:title></dc:title></cc:Work></rdf:RDF></metadata><defs
     id="defs9710"><clipPath
       clipPathUnits="userSpaceOnUse"
       id="clipPath9722"><path
         d="M 0,600 H 600 V 0 H 0 Z"
         id="path9720"
         inkscape:connector-curvature="0" /></clipPath></defs><sodipodi:namedview
     pagecolor="#ffffff"
     bordercolor="#666666"
     borderopacity="1"
     objecttolerance="10"
     gridtolerance="10"
     guidetolerance="10"
     inkscape:pageopacity="0"
     inkscape:pageshadow="2"
     inkscape:window-width="724"
     inkscape:window-height="480"
     id="namedview9708"
     showgrid="false"
     inkscape:zoom="0.295"
     inkscape:cx="400"
     inkscape:cy="400"
     inkscape:window-x="0"
     inkscape:window-y="0"
     inkscape:window-maximized="0"
     inkscape:current-layer="g9714" /><g
     id="g9714"
     inkscape:groupmode="layer"
     inkscape:label="Italy-paint-flag-publicdomainvectors.org"
     transform="matrix(1.3333333,0,0,-1.3333333,0,800)"><g
       id="g9716"><g
         id="g9718"
         clip-path="url(#clipPath9722)"><path
           d="M 600,0 H 0 v 599.359 h 600 z"
           style="fill:#231f20;fill-opacity:1;fill-rule:nonzero;stroke:none"
           id="path9724"
           inkscape:connector-curvature="0" /><path
           d="m 174.83,169.155 c 0.798,0.23 2.048,0.022 2.073,1.041 -4.459,-2.683 -8.478,0.121 -11.424,-3.128 5.445,-0.148 11.125,-0.048 16.988,0.203 v 2.035 c -2.699,-0.514 -5.229,-0.908 -7.637,-0.151"
           style="fill:#15a75f;fill-opacity:1;fill-rule:nonzero;stroke:none"
           id="path9726"
           inkscape:connector-curvature="0" /><path
           d="m 181.062,509.038 c -0.184,-5.765 -8.697,0.925 -8.312,-1.038 0.64,-0.06 1.237,-0.166 1.042,-1.042 -0.275,-1.464 -2.281,-1.185 -3.116,-2.074 -4.886,-0.604 -7.332,-1.117 -10.387,-2.079 -3.294,-1.037 -7.551,-3.362 -9.351,-4.155 -2.762,-1.218 -6.275,-1.976 -9.337,-3.122 -6.234,-2.325 -12.418,-5.581 -17.664,-7.271 -2.69,-0.86 -7.209,-4.397 -9.345,0 0.641,3.171 5.587,2.037 6.235,5.198 -3.148,-0.252 -7.575,-5.734 -9.356,-1.038 0.719,2.055 6.196,-0.646 5.196,3.111 -4.086,1.182 -7.215,-3.129 -8.307,1.042 0.329,2.441 3.214,2.324 4.16,4.161 -5.501,-1.232 -4.697,-2.569 -7.283,1.037 -2.574,3.597 -4.672,9.709 -8.307,7.27 2.293,-0.892 4.238,-7.466 2.086,-9.345 -2.135,4.447 -3.745,9.4 -8.308,11.419 -0.316,-2.039 1.397,-2.062 2.074,-3.112 0.842,-1.317 1.372,-3.788 2.073,-5.195 1.856,-3.716 7.443,-10.169 5.199,-13.504 -0.465,5.232 -3.417,6.64 -5.199,9.349 -2.298,3.489 -2.762,8.026 -6.226,10.388 2.653,-6.618 4.348,-10.174 7.264,-16.621 -0.176,0.403 0.646,1.208 1.037,0 0.111,-0.323 2.097,-3.989 2.086,-5.197 -0.012,-0.72 -1.214,-1.64 -1.05,-2.079 1.05,-2.683 6.942,-4.105 3.124,-7.266 -2.343,0.434 0.159,5.693 -3.124,5.198 -0.914,-3.098 3.246,-6.331 1.05,-7.277 -2.111,3.44 -2.66,8.423 -6.234,10.388 -1.428,-2.367 2.677,-3.91 0,-4.155 -2.39,4.399 -3.94,9.851 -6.227,14.541 -0.896,1.831 -1.434,4.057 -2.08,5.198 -3.404,5.953 0.903,-6.197 -1.043,-7.277 1.495,-2.293 2.531,1.304 3.123,-1.036 -0.31,-2.8 4.336,-5.935 1.037,-8.314 0.061,2.244 -1.225,8.35 -3.117,5.196 3.318,-0.781 -1.085,-7.678 1.037,-7.264 0,0.573 0.836,1.177 1.043,0 -0.177,-3.093 2.403,-6.959 1.037,-11.43 -1.306,4.398 -3.142,10.887 -6.234,10.386 -0.707,2.759 -1.64,5.295 -3.116,7.272 -3.575,-2.995 3.329,-7.82 0,-10.381 0.598,3.579 -3.428,6.196 -5.19,9.337 -1.062,1.91 -1.201,4.672 -2.081,6.234 -0.657,1.183 -2.561,2.164 -3.116,3.123 0.494,-0.862 1.152,3.811 -1.036,1.036 2.97,-1.206 -1.678,-1.206 -2.075,0 -0.932,-3.446 5.763,-4.507 3.111,-6.233 0.073,2.556 -2.421,1.592 -4.154,3.111 -2.964,2.617 -5.293,8.502 -8.307,7.277 3.526,-4.087 8.052,-7.18 9.35,-13.504 -2.177,0.292 -2.361,3.323 -3.123,4.154 -1.91,2.109 -1.726,1.218 -4.153,2.073 -0.097,-4.594 5.673,-3.325 5.198,-8.308 0.309,-2.391 -3.001,-1.146 -3.118,-3.11 1.323,-1.519 4.683,-6.295 3.118,-7.27 -2.863,1.982 -6.199,3.506 -7.272,7.27 -5.83,0.182 3.611,-3.502 0,-4.16 -0.013,1.05 -1.824,1.311 -2.08,0 3.13,-3.117 9.436,-8.54 7.277,-13.492 -0.684,3.477 -3.978,4.332 -5.197,7.265 0.683,-6.947 6.032,-14.711 4.154,-20.774 -1.367,4.074 -2.068,11.137 -5.196,10.392 0.286,1.325 1.042,1.434 1.042,3.117 0,5.94 -1.415,-2.384 -1.042,-2.079 -0.782,-0.653 -5.033,4.183 -5.192,3.11 0.135,-3.714 5.819,-7.277 2.075,-11.424 0.207,2.977 0.134,5.661 -3.11,5.197 -1.276,-2.513 2.463,-2.172 2.072,-4.154 -0.066,-0.358 -2.513,-1.08 -2.072,-2.085 0.272,-0.61 3.806,-0.293 3.11,-2.074 -2.153,-0.58 -2.197,-1.622 -1.038,-3.117 -1.262,0.33 -3.573,-3.001 -1.037,-3.116 0.233,0.81 0.025,2.055 1.037,2.079 0.598,-3.361 -0.311,-5.227 -2.072,-6.232 1.264,-3.187 2.209,-7.391 2.908,-11.352 h 1.237 c -0.022,-1.853 -1.249,-5.221 -1.035,-6.991 0.366,-2.867 2.232,-5.501 2.079,-8.301 -0.06,-1.257 -2.178,-1.079 -2.079,-2.086 0.013,-0.08 1.915,0.085 2.079,0 2.263,-1.013 -1.019,-2.403 -1.036,-2.074 0.127,-2.092 1.847,-4.415 2.074,-7.264 0.115,-1.415 -1.239,-3.562 -1.038,-5.191 0.037,-0.281 1.91,-1.239 2.08,-2.085 -0.013,0.055 -1.36,-1.659 -1.042,-3.111 1.653,-7.423 2.701,-17.486 2.079,-27.006 -1.964,0.12 -0.726,3.433 -3.117,3.114 -0.018,-4.664 3.849,-7.53 0,-10.387 3.458,0.721 1.665,-2.14 1.038,-3.109 6.239,-0.475 2.371,-2.55 2.079,-6.234 3.965,-2.256 3.257,0.958 5.19,3.123 0.715,-6.704 -0.676,-12.004 3.123,-12.473 -4.264,-2.983 -0.385,-10.204 0,-15.566 0.055,-0.964 -1.037,-1.926 -1.043,-2.086 -0.061,-2.493 3.012,-6.288 0,-7.269 -1.055,4.258 -1.823,8.984 -2.08,11.423 -0.525,5.039 0.884,12.717 -4.153,13.498 0.696,-12.113 2.976,-28.172 2.08,-38.427 0.056,1.947 -0.799,2.204 -2.08,1.045 0.061,1.33 1.331,1.434 1.043,3.117 -2.836,0.092 -2.098,-1.739 -4.159,0 1.981,-4.869 0.494,-9.474 1.042,-14.547 0.39,-3.666 2.708,-8.447 2.074,-11.419 -1.965,-9.197 -11.807,-8.116 -18.688,-13.503 -0.78,-3.202 2.848,-1.995 2.074,-5.195 -1.697,-0.245 -4.494,-2.363 -6.63,-3.753 -0.221,-0.144 -0.436,-0.282 -0.641,-0.408 -0.36,-0.213 -1.29,-0.703 -1.987,-1.059 3.397,-0.82 6.376,2.66 4.061,-1.013 1.786,0.987 3.609,1.75 5.058,2.48 0.428,0.216 0.826,0.426 1.175,0.641 -0.549,-0.342 -0.743,0.487 0,1.042 1.562,1.154 4.515,2.339 5.198,1.032 -0.056,0.103 -3.246,-1.58 -3.118,-2.074 1.821,-0.937 3.29,2.64 4.025,0.468 -3.406,-0.379 -4.485,-3.081 -7.141,-4.215 4.257,-1.079 8.496,3.203 11.424,0 -2.117,0.89 -6.447,-0.896 -3.118,-2.068 0.012,1.355 2.879,1.318 3.118,0 -2.836,0.749 -2.092,-2.068 -4.153,-2.086 -2.03,2.531 -10.078,1.026 -10.217,-1.548 -0.919,-0.497 -1.7,-1.119 -2.251,-1.975 1.955,-0.696 2.754,-0.764 3.137,-0.591 -0.005,-0.011 -0.009,-0.02 -0.014,-0.032 1.895,0.082 2.965,0.389 3.597,0.78 0.176,-0.046 0.361,-0.098 0.557,-0.157 0.401,1.447 0.821,2.021 1.279,2.302 0.739,-0.15 2.632,-0.216 3.912,0.185 -4.271,-4.391 4.146,-1.947 5.189,-4.154 -1.505,-0.561 -5.361,1.219 -5.189,-1.042 3.964,-1.794 6.83,1.775 7.269,-3.112 -3.379,-0.083 -6.392,-0.531 -8.306,-2.074 3.866,-1.744 6.526,1.61 10.38,2.074 -0.086,-0.006 2.64,-1.152 4.153,-1.036 6.557,0.481 10.864,1.147 16.621,-2.075 -4.666,-2.33 -9.209,3.868 -11.423,-2.08 4.158,1.356 6.83,-1.791 9.348,-2.077 2.147,-0.234 4.588,2.055 6.234,0 -8.465,-3.851 -12.551,3.774 -21.81,0 -2.885,1.554 1.798,4.244 -1.043,5.194 -1.597,-2.175 -6.167,-0.379 -2.08,-3.117 -3.22,-0.116 -2.965,3.263 -7.271,2.08 -1.231,-4.354 4.38,-1.861 5.197,-4.157 -4.19,1.089 -1.3,-2.265 -3.116,-3.112 -2.941,-1.391 -6.503,1.652 -11.424,-1.043 5.934,-0.489 6.074,-0.33 10.38,-2.073 -0.505,3.421 5.995,4.347 6.234,1.036 -1.22,-0.16 -2.941,0.176 -3.116,-1.036 1.97,-1.964 6.056,3.653 8.314,-1.037 -1.966,-0.233 -2.295,1.164 -4.155,1.037 -0.86,-3.79 4.227,-2.208 5.19,-3.124 0.647,-0.598 -1.914,-2.036 0,-2.074 4.947,4.812 6.277,-2.865 11.424,0 -0.488,-4.301 4.861,-2.758 7.276,-4.159 0.11,1.268 0.299,2.464 2.074,2.079 2.269,-0.23 5.587,-4.689 7.271,-2.079 -1.788,-0.05 -2.672,0.805 -3.117,2.079 7.05,1.445 11.192,0.299 15.583,-3.104 -3.501,-0.666 -9.648,1.322 -11.43,-1.037 7.234,-2.067 13.76,1.988 18.689,-3.122 -1.842,-0.239 -5.198,1.042 -4.147,-2.08 20.309,-3.917 38.856,-9.612 61.272,-11.423 0.146,-1.379 -4.221,-3.13 -1.038,-4.148 0.4,3.573 8.902,3.678 14.909,3.11 v 309.695 c -0.473,0.014 -0.943,0.035 -1.405,0.071"
           style="fill:#15a75f;fill-opacity:1;fill-rule:nonzero;stroke:none"
           id="path9728"
           inkscape:connector-curvature="0" /><path
           d="m 177.946,196.162 c -1.812,0.006 -3.356,-1.265 -5.196,-1.044 -1.361,0.16 -1.41,1.097 -3.111,1.044 -1.879,-0.074 -2.392,-1.245 -4.16,-1.044 -0.231,0.027 -2.685,1.97 -3.111,2.079 -5.629,1.362 -11.241,0.148 -16.62,1.032 -1.611,0.269 -2.709,1.701 -4.147,2.081 -1.629,0.426 -3.563,-0.336 -5.198,0 -1.805,0.365 -3.329,2.56 -5.195,3.115 -1.268,0.38 -2.854,-0.286 -4.148,0 -0.396,0.092 -2.574,1.909 -3.123,2.075 -3.788,1.103 -5.928,0.279 -9.345,1.042 -1.176,0.256 -2.316,1.976 -3.121,2.072 -1.891,0.253 -2.344,-0.972 -4.147,-1.035 -1.166,-0.043 -1.611,1.463 -2.087,0 4.891,-1.225 1.964,-3.014 0,-5.192 7.208,0.91 8.88,-4.238 14.541,-2.077 -2.014,-3.471 0.378,-0.564 3.122,-1.044 1.367,-0.233 2.111,-1.789 3.123,-2.069 1.561,-0.443 3.66,0.55 5.185,0 0.28,-0.109 0.695,-1.864 1.037,-2.079 3.427,-2.08 7.697,0.086 10.392,0 2.019,-0.079 5.478,-1.61 8.301,-2.08 7.978,-1.286 14.279,-1.592 20.768,-3.111 -5.806,0.921 -3.868,-1.055 -5.19,-3.116 -4.02,1.548 -14.718,1.853 -18.683,0 8.782,-0.86 23.54,-1.141 34.634,-4.789 v 14.002 c -1.411,0.075 -2.891,0.126 -4.521,0.138"
           style="fill:#15a75f;fill-opacity:1;fill-rule:nonzero;stroke:none"
           id="path9730"
           inkscape:connector-curvature="0" /><path
           d="m 37.775,250.477 h -7.088 c -0.434,-0.287 -0.852,-0.547 -1.25,-0.731 2.471,-0.467 4.928,-0.267 8.338,0.731"
           style="fill:#15a75f;fill-opacity:1;fill-rule:nonzero;stroke:none"
           id="path9732"
           inkscape:connector-curvature="0" /><path
           d="m 31.596,256.987 c -0.031,0.009 -0.062,0.014 -0.093,0.022 -1.241,-0.679 -0.743,-0.446 0.093,-0.022"
           style="fill:#15a75f;fill-opacity:1;fill-rule:nonzero;stroke:none"
           id="path9734"
           inkscape:connector-curvature="0" /><path
           d="m 177.946,178.492 c -3.367,-0.586 -5.228,0.318 -6.24,2.08 0.097,-0.329 -2.324,-3.234 -4.148,-2.08 -0.658,0.428 1.94,2.127 0,2.08 -0.542,-0.013 -1.219,-2.13 -3.115,-2.08 -3.72,0.116 -7.204,4.153 -11.423,2.08 1.225,-0.152 2.95,0.184 3.115,-1.031 -15.663,1.165 -32.417,4.879 -45.701,5.189 1.549,0.171 3.842,-0.371 4.158,1.043 -8.891,-0.579 -15.601,6.539 -22.846,4.154 5.738,-1.878 12.149,-3.085 17.65,-5.197 -1.841,-0.237 -5.195,1.049 -4.159,-2.085 2.744,-1.61 16.974,-4.092 16.626,-1.029 -2.122,-0.891 -5.733,1.633 -3.121,2.072 4.011,-2.861 8.794,-2.037 13.503,-3.116 0.303,-0.067 1.585,-1.977 2.085,-2.08 1.83,-0.36 4.197,0.579 6.221,0 1.414,-0.39 3.001,-2.646 4.16,-3.103 3.415,-1.379 6.112,-0.411 9.344,-1.038 2.525,1.395 0.646,2.066 2.08,3.104 2.616,0.391 4.599,-1.673 7.27,-2.066 3.837,-0.588 8.88,1.067 14.541,1.028 1.444,-0.007 2.963,-0.073 4.521,-0.159 v 4.317 c -4.779,0.09 -10.202,0.228 -4.521,-2.083"
           style="fill:#15a75f;fill-opacity:1;fill-rule:nonzero;stroke:none"
           id="path9736"
           inkscape:connector-curvature="0" /><path
           d="m 376.311,527.726 c -8.259,0 -17.308,0.823 -24.922,0 -2.999,-0.323 -6.294,-1.83 -9.357,-2.074 -7.215,-0.586 -14.699,0.787 -21.809,0 -4.35,-0.489 -8.015,-2.63 -12.45,-3.112 -9.544,-1.042 -19.645,0.22 -29.092,-1.049 -2.215,-0.286 -4.008,-1.683 -6.228,-2.074 -4.178,-0.724 -9.332,0.198 -11.431,0 -3.402,-0.303 -7.123,-1.799 -10.379,-2.073 -5.808,-0.494 -11.98,0.537 -17.653,0 -4.768,-0.456 -10.367,-2.47 -15.589,-3.122 -12.415,-1.538 -24.929,-5.562 -34.934,-5.255 V 199.272 c 3.148,-0.296 5.612,-0.779 5.865,-1.043 0.635,-0.658 -1.915,-2.006 0,-2.067 0.502,1.226 1.099,2.348 2.08,3.104 4.361,-1.006 10.241,0 13.498,0 1.097,0 2.714,-1.14 3.111,-1.037 0.33,0.091 0.683,3.776 3.123,2.081 -0.392,-3.374 -3.648,-2.112 -5.197,-3.113 -0.854,-0.554 0.329,-1.726 -1.037,-2.079 0.39,0.098 -0.537,2.312 -2.074,2.079 -1.354,-0.213 -0.976,-1.683 -2.081,-2.079 -0.297,2.135 -2.774,2.068 -4.153,3.111 -0.414,-1.788 1.538,-2.666 0,-3.111 -5.24,0.243 -8.874,0.683 -13.135,0.906 v -14.002 c 1.321,-0.434 2.593,-0.914 3.793,-1.45 -0.999,-0.047 -2.367,-0.025 -3.793,0.003 v -4.317 c 6.129,-0.342 12.894,-1.017 18.32,0.159 0.567,0.128 -0.177,1.978 1.049,2.075 5.331,0.469 14.284,-1.494 21.799,-1.037 7.966,0.507 11.875,1.355 15.577,-3.104 -15.59,-3.202 -34.173,-3.141 -50.88,-4.155 -2.049,-0.127 -3.998,-0.537 -5.865,-0.89 v -2.035 c 13.019,0.56 26.936,1.874 41.168,2.925 3.965,0.287 10.582,0.617 15.577,1.032 11.363,0.952 27.758,5.965 37.393,3.123 -0.797,0.23 -2.169,-1.024 -2.072,-1.05 2.153,-0.421 3.69,1.928 5.19,0 -2.653,-0.464 -4.782,-1.457 -6.233,-3.105 3.696,-0.883 6.221,3.009 7.271,-1.041 -5.014,-0.186 -7.088,-3.301 -10.388,-5.19 4.922,0.53 4.149,1.304 2.08,-2.086 2.952,0.181 4.33,1.9 7.27,2.086 0.006,-1.045 -0.841,-1.246 -1.042,-2.086 3.494,-0.11 6.41,3.018 8.307,2.086 0.316,-0.161 -1.086,-2.086 -1.032,-2.086 2.855,-0.142 3.526,0.707 7.271,1.041 -0.061,-1.328 -1.33,-1.438 -1.043,-3.11 3.696,-1.617 0.64,3.526 3.118,3.11 2.152,-0.622 6.824,1.281 7.275,-1.041 -2.945,0.865 -2.701,-1.465 -5.197,-1.038 -1.287,-3.354 3.361,-0.792 2.08,-4.154 -1.695,0.762 -4.525,-2.062 -2.08,-2.074 0.141,1.709 7.132,1.709 7.265,0 -2.866,1.366 -3.557,-4.11 -2.068,-1.037 3.032,-0.28 3.183,2.348 6.228,2.075 -0.317,-1.256 3.001,-3.581 3.116,-1.038 -5.521,1.733 6.142,2.069 9.337,2.074 -1.748,-3.618 -0.377,-3.629 2.088,-5.197 -1.744,-1.433 -6.893,-4.793 -5.198,-6.227 3.16,4.288 13.29,5.362 13.503,9.35 5.527,0.707 7.357,5.112 14.542,4.155 -0.153,-1.234 -1.855,-2.354 0,-3.117 2.934,3.706 7.972,5.293 10.38,7.269 2.915,2.38 5.57,4.532 8.308,6.235 2.561,1.578 3.557,2.749 5.195,4.146 1.149,0.994 3.032,1.075 4.155,2.088 2.653,2.354 5.642,6.598 7.277,8.299 1.439,1.506 3.171,2.025 4.147,3.123 0.198,0.219 0.376,0.468 0.547,0.727 v 340.166 c -3.234,0.019 -6.523,0.022 -9.891,0.022"
           style="fill:#ffffff;fill-opacity:1;fill-rule:nonzero;stroke:none"
           id="path9738"
           inkscape:connector-curvature="0" /><path
           d="m 557.257,431.211 c -4.498,-0.489 -8.949,-0.847 -12.608,0 z m 9.117,-42.294 c 1.952,0.543 8.448,1.817 6.222,3.111 -1.221,-0.153 -2.353,-1.841 -3.112,0 -0.231,3.744 10.052,2.347 7.273,5.191 -4.418,-0.233 -14.231,-2.117 -21.813,0 4.112,0.024 4.555,2.957 3.121,4.159 0.441,-1.72 -3.877,0.092 -4.159,1.037 1.551,0.189 3.831,-0.372 4.159,1.038 -3.267,-0.494 -4.244,1.292 -5.194,3.116 1.695,-0.757 4.512,2.061 2.073,2.067 0.452,-1.714 -3.873,0.098 -4.159,1.05 2.708,0.445 7.989,-0.141 11.429,2.073 6.35,1.909 -6.343,-0.194 -6.233,2.074 3.366,-0.591 4.836,0.714 7.271,1.042 7.002,-0.34 2.317,1.848 -2.074,1.044 -4.684,-1.58 -16.14,-1.842 -20.769,0 6.338,1.938 16.463,0.908 20.769,2.068 -8.74,1.72 4.915,0.841 4.146,4.159 -2.48,3.214 -5.501,-1.043 -8.304,-1.037 -3.558,0.006 -6.722,2.421 -10.383,3.111 5.709,0.182 12.089,-0.317 14.541,3.122 -0.208,3.251 -6.062,0.867 -7.272,3.112 5.907,0.676 14.517,-1.368 18.69,1.049 -2.214,0.574 -4.812,0.622 -7.573,0.459 0.099,0.074 0.209,0.138 0.301,0.22 h -3.11 c 2.769,2.676 -2.391,1.091 -1.036,5.19 2.061,-0.011 1.317,-2.831 4.146,-2.074 0.464,3.922 -5.414,1.494 -6.221,4.153 4.088,-0.285 7.21,0.397 8.307,3.112 -3.597,0.561 -9.856,-1.544 -10.39,2.08 7.852,0.457 13.617,2.999 18.699,6.226 -2.757,-1.233 -5.771,0.195 -9.345,0 -10.79,-0.573 -25.159,-3.537 -29.081,4.154 1.989,0.86 10.319,0.671 8.307,2.085 -6.367,1.483 -12.412,-2.787 -16.62,0 4.249,-1.256 7.587,2.196 11.429,3.118 2.167,0.511 3.934,-0.385 6.228,0 1.525,0.25 3.703,1.756 5.183,2.073 2.431,0.507 7.095,-1.995 7.283,2.08 -8.502,-2.916 -16.863,0.609 -24.932,1.036 -3.185,0.165 -6.869,-1.451 -10.382,-1.036 -2.03,0.231 -4.459,0.934 -6.232,2.079 -2.062,2.392 0.261,1.141 1.038,3.111 -4.687,-0.201 -12.475,-2.727 -16.616,0 5.386,1.696 10.746,-1.256 15.578,2.074 -3.283,2.213 -9.772,-3.489 -5.198,2.08 -3.487,0.647 -9.643,-1.335 -11.423,1.044 1.731,0.115 9.412,-0.576 6.232,1.029 -4.544,0.647 -8.305,2.079 -12.466,3.124 4.123,0.719 11.509,-1.813 12.466,2.067 -6.044,0.188 -11.478,-1.94 -16.618,0 3.145,1.373 8.904,0.11 11.429,2.086 -1.843,0.231 -5.202,-1.056 -4.154,2.068 3.471,-0.249 6.544,-2.226 8.308,1.043 -3.533,2.525 -7.32,-1.282 -10.389,2.073 3.308,1.55 9.688,0.012 12.462,2.08 -3.263,-1.189 -2.518,1.641 -4.153,2.08 -1.722,-1.818 -4.451,0.726 -7.271,1.038 -1.269,0.139 -1.464,-1.136 -3.111,-1.038 -5.16,0.304 -9.87,1.903 -12.467,2.074 0.782,2.348 5.819,0.408 8.308,1.037 1.459,-0.081 3.978,0.232 2.08,1.042 -1.726,-0.005 -3.464,0 -5.19,0 -1.048,0.818 -2.601,0.647 -4.16,3.123 4.837,1.123 8.575,-1.812 10.385,0 0.172,0.152 -8.428,2.08 -9.336,1.038 -1.335,0.054 -1.44,1.323 -3.124,1.037 -2.707,-2.543 -2.291,0.211 -3.109,1.037 -2.204,2.195 -10.747,-2.282 -10.395,2.079 6.18,0.05 13.31,-0.854 15.579,3.116 2.122,-0.944 6.819,-2.085 8.308,1.038 -3.429,-1.471 -2.588,2.115 -4.148,2.074 0.377,0.011 -1.342,-3.971 -4.16,-2.074 0.865,3.329 0.891,2.146 -1.038,4.153 10.991,0.238 23.216,-0.566 30.119,1.031 -7.905,3.598 -16.152,1.458 -24.921,1.043 -29.006,-1.348 -60.718,0.585 -87.243,2.079 8.314,0.683 19.369,-1.377 25.963,1.044 -1.817,0.945 -5.179,0.346 -6.226,2.067 6.519,3.525 19.486,0.592 26.996,3.116 -3.535,1.417 -7.663,0.012 -9.346,0 -2.136,-0.011 -5.479,0.72 -7.265,1.037 -14.142,2.533 -27.968,3.008 -43.079,3.096 V 187.538 c 0.894,1.352 1.499,3.143 2.569,4.463 1.319,1.618 2.935,2.556 4.155,4.161 3.512,4.586 6.89,9.404 9.348,13.496 2.32,3.85 4.483,6.944 5.199,11.418 6.286,2.365 11.172,6.136 18.693,7.278 2.597,-9.906 -1.403,-19.977 -2.081,-30.125 -0.092,-1.312 1.141,-1.428 1.037,-3.111 -0.371,-6.159 -2.287,-13.93 -1.037,-19.729 0.33,-1.545 1.853,-2.422 2.081,-4.161 0.402,-3.142 -1.171,-7.385 1.036,-10.387 -0.181,2.871 1.599,3.573 3.111,2.079 -0.866,-1.207 -1.365,-2.786 -1.032,-5.189 5.642,1.591 1.994,-4.752 2.075,-5.191 -0.018,0.048 1.878,-1.743 2.081,-2.079 3.303,-5.711 -1.928,-12.584 -1.049,-19.738 6.347,-0.805 3.731,7.355 5.196,11.423 1.048,1.142 4.463,5.1 2.072,6.24 0.324,-1.263 -2.994,-3.586 -3.11,-1.042 0.502,4.336 3.403,6.293 6.232,8.307 -2.096,0.847 0.653,5.476 1.038,7.269 -3.902,0.792 -0.712,-5.514 -5.195,-4.152 0.133,1.724 -3.362,6.603 1.035,6.232 -0.138,-1.232 -1.842,-2.355 0,-3.121 4.441,2.738 4.905,6.994 5.198,9.349 3.212,-2.867 4,-8.813 3.11,-11.418 -0.036,-0.127 -2.062,0.096 -2.072,0 -0.148,-2.489 1.267,-4.911 1.035,-7.27 -0.14,-1.477 -1.732,-2.185 -2.073,-4.154 -0.281,-1.689 0.219,-3.506 0,-5.197 4.073,1.427 3.06,6.496 5.196,9.351 0.66,0.872 2.156,0.926 2.919,1.813 -0.782,-0.773 -0.228,4.22 1.24,3.378 0.648,-1.777 3.136,-1.722 4.148,-3.118 -0.622,-1.555 -5.222,-4.335 -3.111,-5.189 1.55,1.218 2.928,2.604 4.148,4.152 1.188,-3.263 -1.629,-2.529 -2.073,-4.152 3.158,-3.259 4.482,5.988 8.308,2.066 0.302,6.625 3.304,10.552 9.355,11.43 1.134,3.015 1.28,7.019 5.183,7.276 -0.17,-2.678 -4.402,-6.581 -2.072,-8.317 1.744,3.683 3.72,7.251 5.196,10.38 0.537,1.165 1.855,1.938 2.073,3.13 0.036,0.213 -1.666,0.759 -1.037,2.066 0.214,0.458 1.648,1.42 2.075,2.086 2.086,3.22 3.012,6.746 6.225,8.308 1.397,-7.656 -3.481,-14.493 -2.077,-18.694 3.072,3.153 2.012,10.459 5.194,13.49 3.119,-8.399 -3.305,-17.803 -2.073,-23.877 2.368,4.208 1.623,8.77 3.111,13.491 0.755,2.396 3.208,4.744 4.154,7.282 1.154,3.074 0.197,4.385 1.043,6.232 1.231,2.661 3.648,6.205 4.154,8.303 0.383,1.634 -0.409,3.573 0,5.19 0.103,0.415 1.945,2.544 2.073,3.121 0.677,2.976 0.105,6.357 1.042,9.346 0.098,0.291 1.954,0.616 2.075,1.037 1.157,4.256 0.328,6.128 1.036,9.348 1.647,7.362 5.484,13.682 6.236,20.775 2.951,0.873 6.299,1.963 7.268,1.038 0.853,-0.812 0.95,-0.311 2.08,-1.038 0.921,-0.592 2.599,-2.824 3.116,-3.116 1.782,-1.024 4.319,-0.926 6.234,-2.08 1.641,-0.988 2.922,-3.587 4.153,-4.153 2.763,-1.264 6.539,-1.006 9.339,-2.074 5.035,-1.914 8.038,-5.527 12.467,-4.153 -2.939,1.556 -4.802,4.195 -9.346,4.153 -3.608,3.819 -7.061,7.88 -11.422,11.423 -0.946,0.756 -3.812,0.982 -5.191,2.069 -1.525,1.207 -2.951,3.219 -3.122,5.196 3.878,-0.666 5.098,-4.586 9.35,-2.075 1.224,-1.956 5.385,-6.306 7.264,-4.152 -1.733,1.683 -4.781,3.134 -7.264,5.189 -2.363,1.953 -5.983,4.1 -5.191,6.228 3.365,-2.885 8.857,-9.107 12.455,-8.3 -3.745,1.133 -1.844,3.129 -3.111,4.146 0.629,-0.499 -2.378,-0.975 -2.075,1.044 5.832,-0.177 -3.609,3.512 0,4.153 1.221,-0.153 2.355,-1.848 3.113,0 -1.095,0.828 -2.87,0.976 -3.703,2.063 h 2.119 c 0.35,-0.52 0.72,-1.016 1.584,-1.02 0.106,0.364 0.152,0.7 0.171,1.02 h 1.781 c -0.63,0.606 -1.285,0.994 -1.937,1.3 -0.056,0.166 -0.113,0.332 -0.191,0.484 h -0.961 c -1.142,0.445 -2.206,0.855 -3.011,1.969 0.353,2.02 -0.171,9.728 -4.155,7.27 1.702,0.755 4.513,-2.063 2.075,-2.075 -3.124,1.319 -3.576,4.167 -2.075,6.234 1.55,-2.256 5.196,-2.422 5.19,-6.234 5.764,1.256 6.308,-2.697 9.345,-4.153 -0.926,4.953 -5.977,5.787 -8.307,9.343 1.378,2.545 3.866,-1.139 4.148,1.044 -4.582,3.719 -9.355,7.251 -13.492,11.417 5.696,1.544 4.55,-3.75 8.306,-4.148 2.768,-0.121 -2.866,4.07 -1.035,4.148 1.317,0.062 3.562,-7.362 7.256,-4.148 -5.011,2.934 -7.22,8.692 -11.411,12.455 1.215,1.197 3.672,1.185 6.228,1.044 -0.933,-3.13 2.446,-1.739 4.148,-3.124 2.7,-2.165 4.78,-7.58 7.28,-6.227 -4.244,3.789 -8.982,9.387 -13.501,11.418 -1.031,0.476 -3.576,3.55 -4.155,4.166 -1.207,1.262 -1.42,3.398 -3.116,4.153 3.702,0.531 6.319,-5.373 8.306,-3.116 -0.89,1.28 -6.691,2.871 -4.153,4.154 2.264,-1.244 6.038,-6.361 8.302,-4.154 -2.014,-0.122 -3.08,2.221 -4.149,3.116 -1.328,1.106 -4.347,1.721 -4.153,4.155 3.507,1.659 4.428,-4.41 6.228,-1.044 -3.695,1.507 -6.18,4.21 -8.306,7.276 2.414,0.343 4.476,1.062 5.196,3.113 -4.318,0.187 -5.714,-1.8 -8.313,1.041 -0.757,2.08 1.994,2.014 2.079,3.118 -0.024,-0.276 -1.983,0.572 -2.079,1.035 -0.397,1.911 1.658,4.735 2.079,7.265 -4.11,-1.367 -1.574,10.802 -1.037,11.437 0.586,0.682 3.421,-0.598 3.116,1.03 -1.786,-0.061 -2.663,0.805 -3.116,2.074 3.945,4.355 -0.231,16.852 7.271,17.663 -1.148,5.647 2.189,6.801 4.148,9.338 -1.788,0.414 -2.661,-1.537 -3.112,0 6.265,2.831 13.807,-1.549 18.688,3.117 -6.795,0.562 -11.821,-0.635 -17.651,-1.038 -1.776,2.08 -1.512,8.424 1.037,9.357 8.715,-0.183 14.058,2.586 20.774,3.111 6.069,0.469 11.49,-0.896 13.503,2.079 -7.647,0.807 -10.196,-2.555 -15.577,0"
           style="fill:#cc3a50;fill-opacity:1;fill-rule:nonzero;stroke:none"
           id="path9740"
           inkscape:connector-curvature="0" /><path
           d="m 555.981,248.703 c 0.005,0.733 -0.12,1.307 -0.321,1.774 h -3.004 c 1.021,-0.679 2.104,-1.297 3.325,-1.774"
           style="fill:#cc3a50;fill-opacity:1;fill-rule:nonzero;stroke:none"
           id="path9742"
           inkscape:connector-curvature="0" /></g></g></g></svg>