<svg id="Layer_1" data-name="Layer 1" xmlns="http://www.w3.org/2000/svg" viewBox="0 0 500 500"><title>ITALY</title><path d="M348.52,367.68l-5.47-61.48h13.84a2.56,2.56,0,0,0,0-5.12H342.6l-6.49-72.91h20.78a2.56,2.56,0,1,0,0-5.11H335.66l-6.49-72.91h27.72a2.56,2.56,0,1,0,0-5.11H328.71l-7-78.85h18.39a2.56,2.56,0,0,0,0-5.11H321.24L318.84,34H162l2.41,27.08H137.22a2.56,2.56,0,0,0,0,5.11h27.63l7,78.85H154a2.56,2.56,0,1,0,0,5.11h18.29l6.48,72.91H154a2.56,2.56,0,1,0,0,5.11h25.23l6.49,72.91H154a2.56,2.56,0,1,0,0,5.12H186.2l5.47,61.48h-13.3v86.88a11.18,11.18,0,0,0,.89,4.39,11.41,11.41,0,0,0,2.41,3.58,11.28,11.28,0,0,0,8,3.3H207V466h27v-.17h24.45V466h27v-.17h24.44V466h27v-.17h17.31a11.28,11.28,0,0,0,8-3.3,11.17,11.17,0,0,0,3.3-8V367.68ZM167.57,39.11H314.16l1.95,22H169.52ZM170,66.19H316.57l7,78.85H295V107.8a10.34,10.34,0,0,0-6.31-9.51,10.2,10.2,0,0,0-4-.81h-.5a10.29,10.29,0,0,0-7.3,3,10.35,10.35,0,0,0-3,7.3V145H257.31V107.8a10.46,10.46,0,0,0-.81-4,10.33,10.33,0,0,0-9.52-6.3h-.5a10.24,10.24,0,0,0-4,.81,10.42,10.42,0,0,0-3.28,2.21,10.4,10.4,0,0,0-3,7.3V145H219.58V107.8a10.34,10.34,0,0,0-6.31-9.51,10.2,10.2,0,0,0-4-.81h-.5a10.24,10.24,0,0,0-4,.81,10.34,10.34,0,0,0-5.49,5.49,10.28,10.28,0,0,0-.81,4V145H177Zm120,41.61v37.14H279V107.8a5.16,5.16,0,0,1,.4-2,5.34,5.34,0,0,1,1.12-1.66,5.2,5.2,0,0,1,3.69-1.53h.5a5.2,5.2,0,0,1,3.69,1.53,5.34,5.34,0,0,1,1.12,1.66A5.17,5.17,0,0,1,289.93,107.8Zm-37.73,0v37.14H241.27V107.8a5.16,5.16,0,0,1,.4-2,5.34,5.34,0,0,1,1.12-1.66,5.2,5.2,0,0,1,3.69-1.53h.5a5.22,5.22,0,0,1,5.22,5.21Zm-37.73,0v37.14H203.54V107.8a5,5,0,0,1,.41-2,5.2,5.2,0,0,1,4.8-3.19h.5a5.22,5.22,0,0,1,5.22,5.21Zm-37,42.35H324l6.48,72.91H303V185.87a10.35,10.35,0,0,0-10.32-10.33h-.51a10.35,10.35,0,0,0-10.33,10.33v37.19H265.28V185.87a10.2,10.2,0,0,0-.81-4,10.42,10.42,0,0,0-2.21-3.28,10.4,10.4,0,0,0-7.3-3h-.51a10.32,10.32,0,0,0-10.32,10.33v37.19H227.55V185.87a10.2,10.2,0,0,0-.81-4,10.35,10.35,0,0,0-9.51-6.31h-.51a10.32,10.32,0,0,0-10.32,10.33v37.19H183.94ZM297.9,185.87V223H287V185.87a5,5,0,0,1,.41-2,5.15,5.15,0,0,1,1.11-1.66,5.34,5.34,0,0,1,1.66-1.12,5.18,5.18,0,0,1,2-.4h.51a5.16,5.16,0,0,1,2,.4,5.34,5.34,0,0,1,1.66,1.12,5.2,5.2,0,0,1,1.53,3.69Zm-37.73,0V223H249.24V185.87a5,5,0,0,1,.41-2,5.15,5.15,0,0,1,1.11-1.66,5.34,5.34,0,0,1,1.66-1.12,5.18,5.18,0,0,1,2-.4H255a5.16,5.16,0,0,1,2,.4,5.34,5.34,0,0,1,1.66,1.12,5.2,5.2,0,0,1,1.53,3.69Zm-37.73,0V223H211.51V185.87a5.19,5.19,0,0,1,.41-2,5.19,5.19,0,0,1,2.77-2.78,5.18,5.18,0,0,1,2-.4h.51a5.16,5.16,0,0,1,2,.4,5.34,5.34,0,0,1,1.66,1.12,5.2,5.2,0,0,1,1.53,3.69Zm-38.05,42.3H331l6.49,72.91H309.29V263.93a10.24,10.24,0,0,0-.81-4,10.42,10.42,0,0,0-2.21-3.28,10.3,10.3,0,0,0-3.29-2.21,10.19,10.19,0,0,0-4-.81h-.51a10.3,10.3,0,0,0-10.32,10.32v37.15H271.56V263.93a10.24,10.24,0,0,0-.81-4,10.42,10.42,0,0,0-2.21-3.28,10.3,10.3,0,0,0-3.29-2.21,10.19,10.19,0,0,0-4-.81h-.51a10.3,10.3,0,0,0-10.32,10.32v37.15H233.83V263.93a10.28,10.28,0,0,0-.81-4,10.42,10.42,0,0,0-2.21-3.28,10.3,10.3,0,0,0-3.29-2.21,10.19,10.19,0,0,0-4-.81H223a10.3,10.3,0,0,0-10.32,10.32v37.15h-21.8Zm119.79,35.76v37.13H293.25V263.93a5,5,0,0,1,.41-2,5.2,5.2,0,0,1,4.8-3.18H299a5.2,5.2,0,0,1,5.21,5.21Zm-37.73,0v37.13H255.52V263.93a5,5,0,0,1,.41-2,5.2,5.2,0,0,1,4.8-3.18h.51a5.2,5.2,0,0,1,5.21,5.21Zm-37.73,0v37.13H217.79V263.93a5.2,5.2,0,0,1,5.21-5.21h.51a5.2,5.2,0,0,1,5.21,5.21ZM191.33,306.2H337.92l5.47,61.48H320.16v-37a10.46,10.46,0,0,0-.81-4,10.29,10.29,0,0,0-2.22-3.28,10.29,10.29,0,0,0-7.3-3h-.5A10.3,10.3,0,0,0,299,330.68v37H282.43v-37a10.42,10.42,0,0,0-.81-4,10.29,10.29,0,0,0-2.22-3.28,10.29,10.29,0,0,0-7.3-3h-.5a10.3,10.3,0,0,0-10.32,10.32v37H244.7v-37a10.28,10.28,0,0,0-.81-4,10.42,10.42,0,0,0-2.21-3.28,10.3,10.3,0,0,0-3.29-2.21,10.19,10.19,0,0,0-4-.81h-.51a10.3,10.3,0,0,0-10.32,10.32v37H196.8Zm123.72,24.48v37H304.12v-37a5.21,5.21,0,0,1,.4-2,5.34,5.34,0,0,1,1.12-1.66,5.25,5.25,0,0,1,3.69-1.52h.5a5.2,5.2,0,0,1,5.22,5.21Zm-37.73,0v37H266.39v-37a5,5,0,0,1,.41-2,5.26,5.26,0,0,1,1.11-1.66,5.31,5.31,0,0,1,1.66-1.11,5.19,5.19,0,0,1,2-.41h.5a5.19,5.19,0,0,1,2,.41,5.31,5.31,0,0,1,1.66,1.11,5.2,5.2,0,0,1,1.53,3.69Zm-37.73,0v37H228.66v-37a5.22,5.22,0,0,1,.41-2,5.13,5.13,0,0,1,2.77-2.77,5.22,5.22,0,0,1,2-.41h.51a5.2,5.2,0,0,1,5.21,5.21Zm-10.78,130H212.06V409.36a8,8,0,0,1,.63-3.13,7.86,7.86,0,0,1,1.72-2.55,8,8,0,0,1,5.68-2.35h.69a8,8,0,0,1,5.68,2.35,8.31,8.31,0,0,1,1.72,2.55,8,8,0,0,1,.63,3.13Zm51.42,0H263.48V409.36a8,8,0,0,1,8-8h.69a7.94,7.94,0,0,1,3.12.63,7.76,7.76,0,0,1,2.55,1.72,7.94,7.94,0,0,1,2.36,5.68Zm51.42,0H314.9V409.36a8,8,0,0,1,.63-3.13,7.86,7.86,0,0,1,1.72-2.55,8,8,0,0,1,5.68-2.35h.69a8,8,0,0,1,5.67,2.35,7.94,7.94,0,0,1,2.36,5.68Zm28.57-6.16a6.16,6.16,0,0,1-.48,2.4,6.33,6.33,0,0,1-1.32,2,6.51,6.51,0,0,1-2,1.32,6.29,6.29,0,0,1-2.39.48H336.76V409.36a13,13,0,0,0-1-5.12,13.09,13.09,0,0,0-7-7,13,13,0,0,0-5.11-1h-.69a13,13,0,0,0-5.12,1,13.09,13.09,0,0,0-7,7,13,13,0,0,0-1,5.12v51.36H285.34V409.36a13.19,13.19,0,0,0-3.85-9.3,13.15,13.15,0,0,0-4.18-2.81,13,13,0,0,0-5.11-1h-.69a13,13,0,0,0-5.12,1,13.09,13.09,0,0,0-7,7,13,13,0,0,0-1,5.12v51.36H233.92V409.36a13.15,13.15,0,0,0-1-5.12,13.18,13.18,0,0,0-7-7,13.06,13.06,0,0,0-5.12-1h-.69a13.14,13.14,0,0,0-9.29,3.85,13.13,13.13,0,0,0-2.82,4.18,13,13,0,0,0-1,5.12v51.36H189.64a6.17,6.17,0,0,1-6.16-6.16V372.79h40.07v.13H244.7v-.13h16.58v.13h21.15v-.13H299v.13h21.15v-.13h40.06Z"/></svg>